<svg width="32" height="32" viewBox="0 0 32 32" fill="none" xmlns="http://www.w3.org/2000/svg">
<circle cx="16" cy="16" r="15" fill="#1C1C1D" stroke="#404040" stroke-width="2"/>
<path d="M22.6667 24.3333H21V22.6666C21 22.0035 20.7366 21.3677 20.2678 20.8988C19.7989 20.43 19.163 20.1666 18.5 20.1666H13.5C12.837 20.1666 12.2011 20.43 11.7322 20.8988C11.2634 21.3677 11 22.0035 11 22.6666V24.3333H9.33334V22.6666C9.33334 21.5615 9.77232 20.5017 10.5537 19.7203C11.3351 18.9389 12.3949 18.4999 13.5 18.4999H18.5C19.6051 18.4999 20.6649 18.9389 21.4463 19.7203C22.2277 20.5017 22.6667 21.5615 22.6667 22.6666V24.3333ZM16 16.8333C15.3434 16.8333 14.6932 16.7039 14.0866 16.4526C13.48 16.2014 12.9288 15.8331 12.4645 15.3688C12.0002 14.9045 11.6319 14.3533 11.3806 13.7467C11.1293 13.14 11 12.4899 11 11.8333C11 11.1766 11.1293 10.5265 11.3806 9.91983C11.6319 9.31321 12.0002 8.76201 12.4645 8.29772C12.9288 7.83343 13.48 7.46513 14.0866 7.21385C14.6932 6.96258 15.3434 6.83325 16 6.83325C17.3261 6.83325 18.5979 7.36004 19.5355 8.29772C20.4732 9.2354 21 10.5072 21 11.8333C21 13.1593 20.4732 14.4311 19.5355 15.3688C18.5979 16.3065 17.3261 16.8333 16 16.8333ZM16 15.1666C16.8841 15.1666 17.7319 14.8154 18.357 14.1903C18.9821 13.5652 19.3333 12.7173 19.3333 11.8333C19.3333 10.9492 18.9821 10.1014 18.357 9.47623C17.7319 8.85111 16.8841 8.49992 16 8.49992C15.1159 8.49992 14.2681 8.85111 13.643 9.47623C13.0179 10.1014 12.6667 10.9492 12.6667 11.8333C12.6667 12.7173 13.0179 13.5652 13.643 14.1903C14.2681 14.8154 15.1159 15.1666 16 15.1666Z" fill="white"/>
</svg>
