<svg width="17" height="22" viewBox="0 0 17 22" fill="none" xmlns="http://www.w3.org/2000/svg">
<path d="M11.5792 8.32099C14.079 7.35334 17.2238 5.56466 16.718 2.24387C16.4321 0.293916 16.4174 1.01965 16.2928 2.03128C15.897 5.27877 14.2109 5.92386 13.5731 6.16577C13.6245 5.85789 13.7051 5.2641 13.7417 4.58235C15.6404 3.55606 15.4351 1.19559 15.3618 0.594473C15.3178 0.220609 15.2299 0.0813261 15.1492 0.0886567C15.0979 0.0959874 15.0979 0.440529 15.0759 0.733755C14.9806 2.9916 14.2402 3.35813 13.7711 3.62937C13.7637 2.48578 13.6098 1.25423 13.1186 0.521166C12.151 -0.900982 13.1919 0.704432 12.9794 3.91526C12.8694 5.58665 12.7228 6.53231 12.1363 7.03079C12.2536 4.25247 11.2347 3.13088 9.98111 1.84802C10.9121 3.47542 11.4399 6.41502 11.1027 7.58059C10.4796 7.92513 9.95912 8.35031 9.52661 8.76083C9.53394 8.40896 9.54861 7.69788 9.4753 7.52928C9.38 7.2947 9.2847 7.80051 9.22606 8.02043C9.18207 8.21103 8.78622 9.12736 8.87418 9.45724C8.8302 9.50856 8.78622 9.5672 8.74223 9.61852C8.71291 9.62585 8.67625 9.64784 8.64693 9.69182C8.50765 9.90441 7.71594 10.0877 7.36407 9.94106C7.09283 9.8311 6.87291 9.91907 6.77761 9.98505C6.68964 9.89708 6.59435 9.79445 6.50638 9.6625C6.33778 9.41326 6.15451 9.20067 5.95658 8.98808C5.94925 8.9221 5.94925 8.87079 5.94925 8.85613C5.94925 8.36497 6.05921 7.78585 5.92726 7.2947C5.90527 7.20673 5.73666 7.38999 5.70001 7.50728C5.61204 7.83716 5.53873 8.17438 5.46543 8.51159C4.74702 7.85916 3.93332 7.30203 3.17093 6.67892C3.10496 6.0045 4.25587 3.95925 4.39515 2.98427C4.46112 2.56642 4.32184 2.33917 4.14591 2.66172C3.96264 2.98427 3.00232 4.69964 2.46719 5.33741C2.46719 5.34474 2.45986 5.34474 2.45986 5.3594C1.77077 2.98427 2.22527 1.23224 2.22527 0.917022C2.22527 0.521166 2.08599 0.704432 2.01268 1.02698C1.94671 1.31288 1.13301 2.96961 1.54352 4.95622C0.964402 4.07654 0.568543 2.97694 0.546551 1.45216C0.524559 0.00801992 0.729818 -0.0139725 0.473245 0.308577C0.224002 0.616464 0.0627286 1.33487 0.011414 2.02395C-0.127869 3.60737 1.03038 5.93119 2.23994 6.92816C2.31324 7.25804 2.45252 7.55127 2.6138 7.74187C2.92169 8.1084 3.45683 8.16704 3.98463 8.26967C4.59308 8.78282 5.09156 9.33262 5.70734 10.1903C4.79834 9.86043 3.03165 8.77549 2.71643 8.49692C2.36456 8.17437 1.9687 8.21103 1.93205 8.4676C1.90273 8.71684 2.39388 9.78712 2.92902 10.6448C3.46415 11.5025 4.53443 11.3192 4.96694 11.5318C5.39212 11.7444 5.10622 11.9277 4.99626 12.2062C4.8863 12.4921 4.8863 13.1739 4.64439 13.885C4.39515 14.6034 4.03595 14.6327 3.0683 14.7133C3.0683 14.7133 1.88806 14.6034 1.53619 16.0768C0.678503 19.0018 4.88631 22 5.46543 22C6.02989 22 6.57236 20.8564 6.67499 20.2846C6.77762 19.7128 7.1808 19.4269 7.50335 19.0751C7.8259 18.7232 8.17777 17.8215 8.17777 16.6413C8.17777 15.4611 8.14845 15.0652 8.14845 15.0652C8.14845 15.0652 8.5443 15.2045 8.75689 15.4171C8.96948 15.6297 9.26271 15.527 9.86382 15.527C10.4723 15.527 10.4723 15.0652 10.6116 14.8526C10.7508 14.64 10.5382 14.0242 10.2597 13.643C9.97378 13.2472 10.0764 12.9686 10.0764 12.6461C10.0764 12.3235 10.289 12.1109 10.0031 11.8177C11.0001 11.7078 11.1833 10.96 11.6452 10.4249C12.107 9.88975 12.3929 8.9221 11.9311 9.10537C11.4692 9.28864 9.14542 10.7474 9.14542 10.7474C9.57793 10.2856 10.8974 8.57756 11.5792 8.32099Z" fill="#262627"/>
</svg>
